<?xml version="1.0" encoding="UTF-8" standalone="no"?>
<!DOCTYPE svg PUBLIC "-//W3C//DTD SVG 1.1//EN" "http://www.w3.org/Graphics/SVG/1.1/DTD/svg11.dtd">
<svg version="1.1" xmlns="http://www.w3.org/2000/svg" xmlns:xlink="http://www.w3.org/1999/xlink" preserveAspectRatio="xMidYMid meet" viewBox="201.5425531914894 201.5425531914894 236.91489361702122 236.91489361702122" width="236.92" height="236.92"><defs><path d="M438.46 320C438.46 385.38 385.38 438.46 320 438.46C254.62 438.46 201.54 385.38 201.54 320C201.54 254.62 254.62 201.54 320 201.54C385.38 201.54 438.46 254.62 438.46 320Z" id="arVgxkju"></path><path d="M415.4 320C415.4 372.65 372.65 415.4 320 415.4C267.35 415.4 224.6 372.65 224.6 320C224.6 267.35 267.35 224.6 320 224.6C372.65 224.6 415.4 267.35 415.4 320Z" id="dIYWpP0D2"></path><path d="M381.71 294.23C381.71 328.04 354.06 355.49 320 355.49C285.94 355.49 258.29 328.04 258.29 294.23C258.29 260.42 285.94 232.97 320 232.97C354.06 232.97 381.71 260.42 381.71 294.23Z" id="a2MCRpWtD"></path><path d="M361.44 291.17C361.44 314.04 342.87 332.61 320 332.61C297.13 332.61 278.56 314.04 278.56 291.17C278.56 268.3 297.13 249.73 320 249.73C342.87 249.73 361.44 268.3 361.44 291.17Z" id="dcttQDSBE"></path><path d="M258.29 293.78L381.71 293.78L381.71 417.2L258.29 417.2L258.29 293.78Z" id="b1Q2a3DMM"></path><path d="M277.66 344.23C277.66 322.89 296.61 305.59 320 305.59C343.39 305.59 362.34 322.88 362.34 344.23C362.34 365.57 343.39 382.87 320 382.87C314.32 382.87 308.9 381.85 303.95 380C302.91 380.69 297.68 384.11 288.28 390.27L290.72 372.14C282.01 360.85 277.66 351.54 277.66 344.23Z" id="c12Uxx49CR"></path></defs><g><g><use xlink:href="#arVgxkju" opacity="1" fill="#06b0fb" fill-opacity="1"></use></g><g><use xlink:href="#dIYWpP0D2" opacity="1" fill="#ffffff" fill-opacity="1"></use></g><g><use xlink:href="#a2MCRpWtD" opacity="1" fill="#06b0fb" fill-opacity="1"></use></g><g><use xlink:href="#dcttQDSBE" opacity="1" fill="#ffffff" fill-opacity="1"></use></g><g><use xlink:href="#b1Q2a3DMM" opacity="1" fill="#06b0fb" fill-opacity="1"></use></g><g><use xlink:href="#c12Uxx49CR" opacity="1" fill="#ffffff" fill-opacity="1"></use></g></g></svg>